<svg width="31" height="27" viewBox="0 0 31 27" fill="none" xmlns="http://www.w3.org/2000/svg">
<path fill-rule="evenodd" clip-rule="evenodd" d="M0.001202 10.8905H2.58316V5.67571C2.58649 4.29719 3.12861 2.97609 4.091 2.00127C5.05339 1.02645 6.35774 0.477226 7.71884 0.473694H23.1571C25.9985 0.473694 28.3078 2.8132 28.3078 5.67571V10.8923H30.8772V13.4933H0L0.001202 10.8905ZM5.1519 10.8905H25.7415V5.67571C25.739 4.98425 25.4657 4.32205 24.9816 3.83442C24.4976 3.34679 23.8423 3.07357 23.1595 3.0747H7.71884C7.03827 3.07647 6.38606 3.35107 5.90482 3.83847C5.42358 4.32587 5.15245 4.98642 5.1507 5.67571L5.1519 10.8905ZM28.309 16.1077V21.3091C28.3079 22.6923 27.7649 24.0186 26.7993 24.9968C25.8336 25.9749 24.5241 26.525 23.1583 26.5263H7.71884C4.8925 26.5263 2.58316 24.1868 2.58316 21.3091V16.1095H5.1507V21.3109C5.14959 22.0024 5.41936 22.6661 5.90083 23.1563C6.38229 23.6466 7.03612 23.9234 7.71884 23.9259H23.1571C23.8419 23.9259 24.4987 23.6504 24.9829 23.16C25.4671 22.6696 25.7391 22.0045 25.7391 21.3109V16.1095L28.309 16.1077Z" fill="#5A6CF3"/>
</svg>
